<mxfile host="app.diagrams.net" modified="2024-01-02T17:21:34.452Z" agent="Mozilla/5.0 (Windows NT 10.0; Win64; x64) AppleWebKit/537.36 (KHTML, like Gecko) Chrome/119.0.0.0 Safari/537.36 OPR/105.0.0.0" etag="UuubgM7urPbIGShz0AXd" version="22.1.16" type="github" pages="2">
  <diagram name="Ejercicio 1" id="e9D0UUOPc3bHEEp7Io9f">
    <mxGraphModel dx="1393" dy="758" grid="1" gridSize="10" guides="1" tooltips="1" connect="1" arrows="1" fold="1" page="1" pageScale="1" pageWidth="980" pageHeight="690" math="0" shadow="0">
      <root>
        <mxCell id="0" />
        <mxCell id="1" parent="0" />
        <mxCell id="zloxpWGqAuvNf6bjvjbH-25" style="edgeStyle=none;shape=connector;rounded=0;orthogonalLoop=1;jettySize=auto;html=1;labelBackgroundColor=default;strokeColor=default;align=center;verticalAlign=middle;fontFamily=Helvetica;fontSize=11;fontColor=default;endArrow=none;endFill=0;" edge="1" parent="1" source="zloxpWGqAuvNf6bjvjbH-1" target="zloxpWGqAuvNf6bjvjbH-3">
          <mxGeometry relative="1" as="geometry" />
        </mxCell>
        <mxCell id="zloxpWGqAuvNf6bjvjbH-1" value="Médico" style="whiteSpace=wrap;html=1;align=center;" vertex="1" parent="1">
          <mxGeometry x="270" y="295" width="100" height="40" as="geometry" />
        </mxCell>
        <mxCell id="zloxpWGqAuvNf6bjvjbH-2" value="Pacientes" style="whiteSpace=wrap;html=1;align=center;" vertex="1" parent="1">
          <mxGeometry x="610" y="295" width="100" height="40" as="geometry" />
        </mxCell>
        <mxCell id="zloxpWGqAuvNf6bjvjbH-26" style="edgeStyle=none;shape=connector;rounded=0;orthogonalLoop=1;jettySize=auto;html=1;labelBackgroundColor=default;strokeColor=default;align=center;verticalAlign=middle;fontFamily=Helvetica;fontSize=11;fontColor=default;endArrow=none;endFill=0;" edge="1" parent="1" source="zloxpWGqAuvNf6bjvjbH-3" target="zloxpWGqAuvNf6bjvjbH-2">
          <mxGeometry relative="1" as="geometry" />
        </mxCell>
        <mxCell id="zloxpWGqAuvNf6bjvjbH-3" value="atiende" style="shape=rhombus;perimeter=rhombusPerimeter;whiteSpace=wrap;html=1;align=center;" vertex="1" parent="1">
          <mxGeometry x="430" y="285" width="120" height="60" as="geometry" />
        </mxCell>
        <mxCell id="zloxpWGqAuvNf6bjvjbH-4" value="Salas" style="whiteSpace=wrap;html=1;align=center;" vertex="1" parent="1">
          <mxGeometry x="270" y="450" width="100" height="40" as="geometry" />
        </mxCell>
        <mxCell id="zloxpWGqAuvNf6bjvjbH-11" style="edgeStyle=none;shape=connector;rounded=0;orthogonalLoop=1;jettySize=auto;html=1;labelBackgroundColor=default;strokeColor=default;align=center;verticalAlign=middle;fontFamily=Helvetica;fontSize=11;fontColor=default;endArrow=none;endFill=0;" edge="1" parent="1" source="zloxpWGqAuvNf6bjvjbH-6" target="zloxpWGqAuvNf6bjvjbH-4">
          <mxGeometry relative="1" as="geometry" />
        </mxCell>
        <mxCell id="zloxpWGqAuvNf6bjvjbH-12" style="edgeStyle=none;shape=connector;rounded=0;orthogonalLoop=1;jettySize=auto;html=1;labelBackgroundColor=default;strokeColor=default;align=center;verticalAlign=middle;fontFamily=Helvetica;fontSize=11;fontColor=default;endArrow=none;endFill=0;" edge="1" parent="1" source="zloxpWGqAuvNf6bjvjbH-6" target="zloxpWGqAuvNf6bjvjbH-1">
          <mxGeometry relative="1" as="geometry" />
        </mxCell>
        <mxCell id="zloxpWGqAuvNf6bjvjbH-6" value="pasan" style="shape=rhombus;perimeter=rhombusPerimeter;whiteSpace=wrap;html=1;align=center;" vertex="1" parent="1">
          <mxGeometry x="260" y="360" width="120" height="60" as="geometry" />
        </mxCell>
        <mxCell id="zloxpWGqAuvNf6bjvjbH-10" style="edgeStyle=none;shape=connector;rounded=0;orthogonalLoop=1;jettySize=auto;html=1;labelBackgroundColor=default;strokeColor=default;align=center;verticalAlign=middle;fontFamily=Helvetica;fontSize=11;fontColor=default;endArrow=none;endFill=0;" edge="1" parent="1" source="zloxpWGqAuvNf6bjvjbH-7" target="zloxpWGqAuvNf6bjvjbH-4">
          <mxGeometry relative="1" as="geometry" />
        </mxCell>
        <mxCell id="zloxpWGqAuvNf6bjvjbH-7" value="Ubicación" style="ellipse;whiteSpace=wrap;html=1;align=center;fontFamily=Helvetica;fontSize=11;fontColor=default;" vertex="1" parent="1">
          <mxGeometry x="200" y="530" width="100" height="40" as="geometry" />
        </mxCell>
        <mxCell id="zloxpWGqAuvNf6bjvjbH-9" style="rounded=0;orthogonalLoop=1;jettySize=auto;html=1;endArrow=none;endFill=0;" edge="1" parent="1" source="zloxpWGqAuvNf6bjvjbH-8" target="zloxpWGqAuvNf6bjvjbH-4">
          <mxGeometry relative="1" as="geometry" />
        </mxCell>
        <mxCell id="zloxpWGqAuvNf6bjvjbH-8" value="idSala" style="whiteSpace=wrap;html=1;align=center;fontFamily=Helvetica;fontSize=11;fontColor=default;shape=ellipse;perimeter=ellipsePerimeter;fontStyle=4;" vertex="1" parent="1">
          <mxGeometry x="340" y="530" width="100" height="40" as="geometry" />
        </mxCell>
        <mxCell id="zloxpWGqAuvNf6bjvjbH-24" style="edgeStyle=none;shape=connector;rounded=0;orthogonalLoop=1;jettySize=auto;html=1;labelBackgroundColor=default;strokeColor=default;align=center;verticalAlign=middle;fontFamily=Helvetica;fontSize=11;fontColor=default;endArrow=none;endFill=0;" edge="1" parent="1" source="zloxpWGqAuvNf6bjvjbH-13" target="zloxpWGqAuvNf6bjvjbH-1">
          <mxGeometry relative="1" as="geometry" />
        </mxCell>
        <mxCell id="zloxpWGqAuvNf6bjvjbH-13" value="Nombre" style="ellipse;whiteSpace=wrap;html=1;align=center;fontFamily=Helvetica;fontSize=11;fontColor=default;" vertex="1" parent="1">
          <mxGeometry x="110" y="255" width="100" height="40" as="geometry" />
        </mxCell>
        <mxCell id="zloxpWGqAuvNf6bjvjbH-21" style="edgeStyle=none;shape=connector;rounded=0;orthogonalLoop=1;jettySize=auto;html=1;labelBackgroundColor=default;strokeColor=default;align=center;verticalAlign=middle;fontFamily=Helvetica;fontSize=11;fontColor=default;endArrow=none;endFill=0;" edge="1" parent="1" source="zloxpWGqAuvNf6bjvjbH-15" target="zloxpWGqAuvNf6bjvjbH-1">
          <mxGeometry relative="1" as="geometry" />
        </mxCell>
        <mxCell id="zloxpWGqAuvNf6bjvjbH-15" value="Email" style="ellipse;whiteSpace=wrap;html=1;align=center;fontFamily=Helvetica;fontSize=11;fontColor=default;" vertex="1" parent="1">
          <mxGeometry x="260" y="180" width="100" height="40" as="geometry" />
        </mxCell>
        <mxCell id="zloxpWGqAuvNf6bjvjbH-20" style="edgeStyle=none;shape=connector;rounded=0;orthogonalLoop=1;jettySize=auto;html=1;labelBackgroundColor=default;strokeColor=default;align=center;verticalAlign=middle;fontFamily=Helvetica;fontSize=11;fontColor=default;endArrow=none;endFill=0;" edge="1" parent="1" source="zloxpWGqAuvNf6bjvjbH-16" target="zloxpWGqAuvNf6bjvjbH-1">
          <mxGeometry relative="1" as="geometry" />
        </mxCell>
        <mxCell id="zloxpWGqAuvNf6bjvjbH-16" value="Telefono" style="ellipse;whiteSpace=wrap;html=1;align=center;fontFamily=Helvetica;fontSize=11;fontColor=default;" vertex="1" parent="1">
          <mxGeometry x="360" y="170" width="100" height="40" as="geometry" />
        </mxCell>
        <mxCell id="zloxpWGqAuvNf6bjvjbH-19" style="edgeStyle=none;shape=connector;rounded=0;orthogonalLoop=1;jettySize=auto;html=1;labelBackgroundColor=default;strokeColor=default;align=center;verticalAlign=middle;fontFamily=Helvetica;fontSize=11;fontColor=default;endArrow=none;endFill=0;" edge="1" parent="1" source="zloxpWGqAuvNf6bjvjbH-17" target="zloxpWGqAuvNf6bjvjbH-1">
          <mxGeometry relative="1" as="geometry" />
        </mxCell>
        <mxCell id="zloxpWGqAuvNf6bjvjbH-17" value="Año en que &lt;br&gt;se colegió" style="ellipse;whiteSpace=wrap;html=1;align=center;fontFamily=Helvetica;fontSize=11;fontColor=default;" vertex="1" parent="1">
          <mxGeometry x="440" y="200" width="100" height="40" as="geometry" />
        </mxCell>
        <mxCell id="zloxpWGqAuvNf6bjvjbH-22" style="edgeStyle=none;shape=connector;rounded=0;orthogonalLoop=1;jettySize=auto;html=1;labelBackgroundColor=default;strokeColor=default;align=center;verticalAlign=middle;fontFamily=Helvetica;fontSize=11;fontColor=default;endArrow=none;endFill=0;" edge="1" parent="1" source="zloxpWGqAuvNf6bjvjbH-18" target="zloxpWGqAuvNf6bjvjbH-1">
          <mxGeometry relative="1" as="geometry" />
        </mxCell>
        <mxCell id="zloxpWGqAuvNf6bjvjbH-18" value="idMedico" style="whiteSpace=wrap;html=1;align=center;fontFamily=Helvetica;fontSize=11;fontColor=default;shape=ellipse;perimeter=ellipsePerimeter;fontStyle=4;" vertex="1" parent="1">
          <mxGeometry x="170" y="210" width="100" height="40" as="geometry" />
        </mxCell>
        <mxCell id="zloxpWGqAuvNf6bjvjbH-37" style="edgeStyle=none;shape=connector;rounded=0;orthogonalLoop=1;jettySize=auto;html=1;labelBackgroundColor=default;strokeColor=default;align=center;verticalAlign=middle;fontFamily=Helvetica;fontSize=11;fontColor=default;endArrow=none;endFill=0;" edge="1" parent="1" source="zloxpWGqAuvNf6bjvjbH-27" target="zloxpWGqAuvNf6bjvjbH-2">
          <mxGeometry relative="1" as="geometry" />
        </mxCell>
        <mxCell id="zloxpWGqAuvNf6bjvjbH-27" value="Nombre" style="ellipse;whiteSpace=wrap;html=1;align=center;fontFamily=Helvetica;fontSize=11;fontColor=default;" vertex="1" parent="1">
          <mxGeometry x="700" y="210" width="100" height="40" as="geometry" />
        </mxCell>
        <mxCell id="zloxpWGqAuvNf6bjvjbH-35" style="edgeStyle=none;shape=connector;rounded=0;orthogonalLoop=1;jettySize=auto;html=1;labelBackgroundColor=default;strokeColor=default;align=center;verticalAlign=middle;fontFamily=Helvetica;fontSize=11;fontColor=default;endArrow=none;endFill=0;" edge="1" parent="1" source="zloxpWGqAuvNf6bjvjbH-29" target="zloxpWGqAuvNf6bjvjbH-2">
          <mxGeometry relative="1" as="geometry" />
        </mxCell>
        <mxCell id="zloxpWGqAuvNf6bjvjbH-29" value="Email" style="ellipse;whiteSpace=wrap;html=1;align=center;fontFamily=Helvetica;fontSize=11;fontColor=default;" vertex="1" parent="1">
          <mxGeometry x="830" y="285" width="100" height="40" as="geometry" />
        </mxCell>
        <mxCell id="zloxpWGqAuvNf6bjvjbH-36" style="edgeStyle=none;shape=connector;rounded=0;orthogonalLoop=1;jettySize=auto;html=1;labelBackgroundColor=default;strokeColor=default;align=center;verticalAlign=middle;fontFamily=Helvetica;fontSize=11;fontColor=default;endArrow=none;endFill=0;" edge="1" parent="1" source="zloxpWGqAuvNf6bjvjbH-30" target="zloxpWGqAuvNf6bjvjbH-2">
          <mxGeometry relative="1" as="geometry" />
        </mxCell>
        <mxCell id="zloxpWGqAuvNf6bjvjbH-30" value="Telefono" style="ellipse;whiteSpace=wrap;html=1;align=center;fontFamily=Helvetica;fontSize=11;fontColor=default;" vertex="1" parent="1">
          <mxGeometry x="790" y="233" width="100" height="40" as="geometry" />
        </mxCell>
        <mxCell id="zloxpWGqAuvNf6bjvjbH-34" style="edgeStyle=none;shape=connector;rounded=0;orthogonalLoop=1;jettySize=auto;html=1;labelBackgroundColor=default;strokeColor=default;align=center;verticalAlign=middle;fontFamily=Helvetica;fontSize=11;fontColor=default;endArrow=none;endFill=0;" edge="1" parent="1" source="zloxpWGqAuvNf6bjvjbH-31" target="zloxpWGqAuvNf6bjvjbH-2">
          <mxGeometry relative="1" as="geometry" />
        </mxCell>
        <mxCell id="zloxpWGqAuvNf6bjvjbH-31" value="Numero de &lt;br&gt;historial médico" style="ellipse;whiteSpace=wrap;html=1;align=center;fontFamily=Helvetica;fontSize=11;fontColor=default;" vertex="1" parent="1">
          <mxGeometry x="790" y="345" width="100" height="40" as="geometry" />
        </mxCell>
        <mxCell id="zloxpWGqAuvNf6bjvjbH-32" value="idPaciente" style="ellipse;whiteSpace=wrap;html=1;align=center;fontStyle=4;fontFamily=Helvetica;fontSize=11;fontColor=default;" vertex="1" parent="1">
          <mxGeometry x="720" y="390" width="100" height="40" as="geometry" />
        </mxCell>
        <mxCell id="zloxpWGqAuvNf6bjvjbH-33" style="edgeStyle=none;shape=connector;rounded=0;orthogonalLoop=1;jettySize=auto;html=1;labelBackgroundColor=default;strokeColor=default;align=center;verticalAlign=middle;fontFamily=Helvetica;fontSize=11;fontColor=default;endArrow=none;endFill=0;" edge="1" parent="1" source="zloxpWGqAuvNf6bjvjbH-32" target="zloxpWGqAuvNf6bjvjbH-2">
          <mxGeometry relative="1" as="geometry" />
        </mxCell>
        <mxCell id="zloxpWGqAuvNf6bjvjbH-39" value="(1,n)" style="text;html=1;align=center;verticalAlign=middle;resizable=0;points=[];autosize=1;strokeColor=none;fillColor=none;fontSize=11;fontFamily=Helvetica;fontColor=default;" vertex="1" parent="1">
          <mxGeometry x="310" y="423" width="50" height="30" as="geometry" />
        </mxCell>
        <mxCell id="zloxpWGqAuvNf6bjvjbH-40" value="(1,n)" style="text;html=1;align=center;verticalAlign=middle;resizable=0;points=[];autosize=1;strokeColor=none;fillColor=none;fontSize=11;fontFamily=Helvetica;fontColor=default;" vertex="1" parent="1">
          <mxGeometry x="310" y="330" width="50" height="30" as="geometry" />
        </mxCell>
        <mxCell id="zloxpWGqAuvNf6bjvjbH-41" value="N:M" style="text;html=1;align=center;verticalAlign=middle;resizable=0;points=[];autosize=1;strokeColor=none;fillColor=none;fontSize=11;fontFamily=Helvetica;fontColor=default;" vertex="1" parent="1">
          <mxGeometry x="222" y="375" width="40" height="30" as="geometry" />
        </mxCell>
        <mxCell id="zloxpWGqAuvNf6bjvjbH-43" style="edgeStyle=none;shape=connector;rounded=0;orthogonalLoop=1;jettySize=auto;html=1;labelBackgroundColor=default;strokeColor=default;align=center;verticalAlign=middle;fontFamily=Helvetica;fontSize=11;fontColor=default;endArrow=none;endFill=0;" edge="1" parent="1" source="zloxpWGqAuvNf6bjvjbH-42" target="zloxpWGqAuvNf6bjvjbH-6">
          <mxGeometry relative="1" as="geometry" />
        </mxCell>
        <mxCell id="zloxpWGqAuvNf6bjvjbH-42" value="hora que&lt;br&gt;pasa" style="ellipse;whiteSpace=wrap;html=1;align=center;fontFamily=Helvetica;fontSize=11;fontColor=default;" vertex="1" parent="1">
          <mxGeometry x="400" y="370" width="80" height="40" as="geometry" />
        </mxCell>
      </root>
    </mxGraphModel>
  </diagram>
  <diagram id="keZ1kcQEt2_5D-CYPhZO" name="Ejercicio 3">
    <mxGraphModel dx="1393" dy="758" grid="1" gridSize="10" guides="1" tooltips="1" connect="1" arrows="1" fold="1" page="1" pageScale="1" pageWidth="980" pageHeight="690" math="0" shadow="0">
      <root>
        <mxCell id="0" />
        <mxCell id="1" parent="0" />
      </root>
    </mxGraphModel>
  </diagram>
</mxfile>
